# xmcd
#
# Track frame offsets:
#	150
#	7808
#	20444
#	28890
#	36444
#	43419
#	51339
#	55940
#	61031
#	69359
#	76097
#	83420
#	93761
#	102729
#	108598
#	117668
#	126417
#	137723
#	150840
#
# Disc length: 2434 seconds
#
# Revision: 0
# Processed by: cddbd v1.5.2PL0 Copyright (c) Steve Scherf et al.
# Submitted via: EasyCDDAExtractor 12.0.0.1
#
DISCID=f8098013
DTITLE=Grupo Encanto - CantaJuegos vol 2
DYEAR=1900
DGENRE=Infantil
TTITLE0=El patio de mi casa
TTITLE1=A mi burro
TTITLE2=Con mi dedito
TTITLE3=Ronda de los conejos
TTITLE4=En mi vagón
TTITLE5=Parapapa (tachín)
TTITLE6=Ladrillo a ladrillo
TTITLE7=Chocolate
TTITLE8=El zapatero, tortuguita y rapidin (canción)
TTITLE9=La brujita Tapita
TTITLE10=Hocky Pocky
TTITLE11=El Ratón Pérez
TTITLE12=Si tu tienes muchas ganas
TTITLE13=Cinco ratoncitos
TTITLE14=Estaba el Señor Don Gato
TTITLE15=El camión azul
TTITLE16=Tengo una hormiguita en la patita
TTITLE17=Chuchua
TTITLE18=El zapatero, tortuguita y rapidin (cuento)
EXTD=
EXTT0=
EXTT1=
EXTT2=
EXTT3=
EXTT4=
EXTT5=
EXTT6=
EXTT7=
EXTT8=
EXTT9=
EXTT10=
EXTT11=
EXTT12=
EXTT13=
EXTT14=
EXTT15=
EXTT16=
EXTT17=
EXTT18=
PLAYORDER=
